<?xml version="1.0" encoding="UTF-8"?><svg width="112" height="47" viewBox="0 0 112 47" fill="none" xmlns="http://www.w3.org/2000/svg">
<path d="M50.2578 8.41281H57.2368V30.1131H50.2578V8.41281ZM62.3265 30.1131V8.41281H73.9335C76.0855 8.41281 77.7332 8.58933 78.8668 8.94776C80.0059 9.30187 80.9237 9.95845 81.6224 10.9229C82.3199 11.883 82.6665 13.0551 82.6665 14.4339C82.6665 15.6416 82.3993 16.677 81.8683 17.551C81.3328 18.425 80.5984 19.1322 79.6694 19.6779C79.0714 20.0212 78.2575 20.3097 77.2246 20.5314C78.0541 20.7994 78.6566 21.0664 79.0401 21.3355C79.2916 21.512 79.665 21.8909 80.1524 22.4721C80.6409 23.0576 80.9662 23.5032 81.1283 23.8207L84.4976 30.1109H76.6265L72.9062 23.4774C72.4345 22.6238 72.0141 22.0631 71.6419 21.8047C71.1433 21.4711 70.5709 21.3042 69.936 21.3042H69.3223V30.1109H62.3276L62.3265 30.1131ZM69.3211 17.2044H72.2601C72.5753 17.2044 73.1879 17.1086 74.1012 16.9117C74.5629 16.8202 74.9408 16.5931 75.2348 16.2293C75.5232 15.8655 75.6707 15.4457 75.6707 14.971C75.6707 14.2681 75.4393 13.7332 74.9777 13.3586C74.516 12.9798 73.6496 12.7925 72.3797 12.7925H69.32V17.2034L69.3211 17.2044ZM86.6484 8.41281H95.8106L99.3476 21.6153L102.869 8.41281H112V30.1131H106.311V13.5664L101.897 30.1131H96.7496L92.3519 13.5664V30.1131H86.6484V8.41281Z" fill="#393185"/>
<path d="M50.2988 32.3433H60.0379V34.7608H53.9409V36.5626H59.5963V38.8725H53.9409V41.1037H60.2156V43.6697H50.2988V32.3433ZM61.955 35.4658H64.9979V36.8005C65.4529 36.2548 65.9135 35.8673 66.3785 35.6326C66.8447 35.398 67.4114 35.2785 68.0788 35.2785C68.9832 35.2785 69.6897 35.5401 70.2017 36.0567C70.7114 36.5734 70.9663 37.3731 70.9663 38.4538V43.6697H67.6853V39.1577C67.6853 38.6432 67.587 38.2794 67.3891 38.0663C67.189 37.8499 66.9129 37.7444 66.554 37.7444C66.1594 37.7444 65.8363 37.8898 65.5926 38.1771C65.3467 38.4645 65.2226 38.9844 65.2226 39.7303V43.6697H61.955V35.4658ZM82.3755 40.3471H75.8303C75.8873 40.8529 76.0304 41.2275 76.255 41.4761C76.5703 41.8324 76.9839 42.0089 77.4903 42.0089C77.8111 42.0089 78.1174 41.9325 78.4059 41.7764C78.5836 41.6785 78.7725 41.5074 78.9749 41.2598L82.1933 41.545C81.7003 42.3706 81.1089 42.9615 80.4125 43.3199C79.7171 43.6762 78.72 43.8549 77.4188 43.8549C76.2908 43.8549 75.4032 43.702 74.7537 43.3963C74.1076 43.0907 73.571 42.602 73.1462 41.9357C72.7214 41.2684 72.5079 40.4848 72.5079 39.5828C72.5079 38.3009 72.9349 37.2622 73.7868 36.4711C74.6408 35.6768 75.8191 35.2785 77.3226 35.2785C78.5411 35.2785 79.5059 35.4583 80.209 35.8135C80.9155 36.1665 81.4555 36.6832 81.8221 37.3559C82.1921 38.0308 82.3755 38.9091 82.3755 39.9908V40.3471ZM79.0565 38.8412C78.9905 38.232 78.8206 37.7972 78.5467 37.5356C78.2706 37.2719 77.9084 37.1395 77.459 37.1395C76.9392 37.1395 76.5256 37.3397 76.2126 37.7358C76.0158 37.9834 75.8895 38.3504 75.837 38.8412H79.0542H79.0565ZM83.9103 35.4658H86.9666V36.808C87.2618 36.2279 87.5669 35.8275 87.8788 35.6079C88.1907 35.3894 88.5775 35.2785 89.037 35.2785C89.5188 35.2785 90.0442 35.4238 90.6165 35.7112L89.606 37.9522C89.2225 37.7972 88.9162 37.7197 88.6915 37.7197C88.2645 37.7197 87.9325 37.8908 87.6977 38.2288C87.3613 38.7089 87.1913 39.6055 87.1913 40.9186V43.6697H83.9103V35.4658ZM97.5083 35.4658H100.567V43.2134L100.575 43.5772C100.575 44.0917 100.46 44.5814 100.233 45.0485C100.005 45.5157 99.7038 45.8924 99.326 46.1798C98.9482 46.4693 98.4686 46.6781 97.8906 46.8051C97.3105 46.9343 96.6442 47 95.8963 47C94.1848 47 93.0066 46.7524 92.3683 46.2562C91.73 45.7632 91.4102 45.1013 91.4102 44.2736C91.4102 44.1681 91.4158 44.0303 91.427 43.8538L94.5962 44.2015C94.6756 44.4867 94.7986 44.6815 94.9662 44.7891C95.2077 44.9474 95.5084 45.0292 95.8728 45.0292C96.3435 45.0292 96.6945 44.9075 96.927 44.6654C97.1595 44.4232 97.2747 44.0013 97.2747 43.3974V42.1553C96.9538 42.5191 96.6341 42.785 96.3133 42.9518C95.8091 43.208 95.267 43.3372 94.6834 43.3372C93.5443 43.3372 92.6231 42.8571 91.9222 41.9002C91.427 41.22 91.1777 40.3212 91.1777 39.205C91.1777 37.9263 91.4986 36.9533 92.1391 36.2828C92.783 35.6133 93.6214 35.2785 94.6588 35.2785C95.324 35.2785 95.8695 35.3872 96.2988 35.6025C96.7314 35.8189 97.1338 36.1773 97.5072 36.6789V35.4658H97.5083ZM94.4352 39.4418C94.4352 40.0349 94.566 40.4762 94.8299 40.7604C95.0926 41.0456 95.438 41.1898 95.865 41.1898C96.2697 41.1898 96.6129 41.0402 96.8868 40.7442C97.164 40.4493 97.3004 40.0005 97.3004 39.4042C97.3004 38.8057 97.1551 38.3494 96.8678 38.0329C96.5805 37.7165 96.2272 37.5582 95.808 37.5582C95.391 37.5582 95.0568 37.7035 94.8109 37.9931C94.5616 38.2837 94.4352 38.768 94.4352 39.4408V39.4418ZM101.877 35.4658H105.326L107.084 40.9272L108.714 35.4658H111.931L108.552 44.2337C108.168 45.2337 107.774 45.9085 107.371 46.2562C106.805 46.7524 105.942 47 104.78 47C104.31 47 103.583 46.9365 102.597 46.8127L102.342 44.6191C102.81 44.7644 103.336 44.8354 103.914 44.8354C104.297 44.8354 104.609 44.7515 104.847 44.5825C105.085 44.4113 105.289 44.1078 105.452 43.6697L101.875 35.4658H101.877Z" fill="#009846"/>
<path fill-rule="evenodd" clip-rule="evenodd" d="M34.8974 8.35901C34.1808 8.38484 33.2775 8.52584 32.893 9.05002C32.2815 9.88527 32.7991 11.6171 33.2049 12.6461C37.2751 15.8525 39.6394 20.6272 39.6394 25.7173C39.6394 35.0417 31.7874 42.602 22.102 42.602C12.4178 42.602 4.56573 35.0417 4.56573 25.7173C4.56573 20.6036 6.95242 15.8095 11.0551 12.6031C11.4687 11.5708 12.031 9.73566 11.3938 8.93163C10.9824 8.41175 9.93606 8.38161 9.20161 8.43435C3.42772 12.4351 -0.00195312 18.8351 -0.00195312 25.7184C-0.00195312 37.4732 9.89358 47.001 22.102 47.001C34.3105 47.001 44.206 37.4732 44.206 25.7184C44.206 18.7953 40.7361 12.3566 34.8963 8.36008L34.8974 8.35901Z" fill="#009846"/>
<path fill-rule="evenodd" clip-rule="evenodd" d="M18.0641 0.00332332C18.0641 0.00332332 21.1908 3.06554 18.9573 7.51947C16.7238 11.9734 9.7269 21.9953 8.8337 24.2222C7.94051 26.4492 6.30281 33.4089 19.552 38.2804C19.552 38.2804 13.4483 32.5736 15.3834 28.2586C17.3185 23.9435 23.9229 15.3897 24.3701 14.2757C26.2806 9.51287 22.0986 5.77148 19.6873 2.03978C19.6873 2.03978 18.063 -0.0860136 18.063 0.00224698L18.0641 0.00332332Z" fill="#393185"/>
<path fill-rule="evenodd" clip-rule="evenodd" d="M27.1065 12.6224C27.1065 12.6224 28.4055 14.8096 26.0669 19.3044C23.7283 23.7992 21.7787 25.3793 20.3489 27.5654C18.9191 29.7525 19.439 33.2151 21.9084 34.5509C21.9084 34.5509 20.5434 32.7889 22.1677 30.2379C23.792 27.6859 28.0802 23.556 28.7946 20.0934C29.4597 16.8697 27.2508 12.2123 27.1054 12.6213L27.1065 12.6224Z" fill="#006CB5"/>
<path fill-rule="evenodd" clip-rule="evenodd" d="M31.5244 16.6921C31.5244 16.6921 32.7474 18.7651 31.8799 22.2267C30.7453 26.757 27.9573 27.6052 25.7416 31.2712C24.8965 32.6683 23.9228 34.9158 24.4426 37.4064C24.4426 37.4064 24.702 35.9491 28.6012 32.6683C32.4992 29.3876 34.839 26.4115 34.384 22.6454C34.033 19.7339 31.5256 16.4725 31.5256 16.6921H31.5244Z" fill="#00A0E3"/>
</svg>
